<?xml version="1.0" standalone="no"?>
<!DOCTYPE svg PUBLIC "-//W3C//DTD SVG 20010904//EN"
 "http://www.w3.org/TR/2001/REC-SVG-20010904/DTD/svg10.dtd">
<svg version="1.0" xmlns="http://www.w3.org/2000/svg"
 width="260.000000pt" height="260.000000pt" viewBox="0 0 260.000000 260.000000"
 preserveAspectRatio="xMidYMid meet">
<metadata>
Created by potrace 1.11, written by Peter Selinger 2001-2013
</metadata>
<g transform="translate(0.000000,260.000000) scale(0.100000,-0.100000)"
fill="#000000" stroke="none">
<path d="M0 1300 l0 -1300 1300 0 1300 0 0 1300 0 1300 -1300 0 -1300 0 0
-1300z m620 1170 l0 -100 -295 0 -295 0 0 100 0 100 295 0 295 0 0 -100z m650
0 l0 -100 -295 0 -295 0 0 100 0 100 295 0 295 0 0 -100z m650 0 l0 -100 -295
0 -295 0 0 100 0 100 295 0 295 0 0 -100z m650 0 l0 -100 -295 0 -295 0 0 100
0 100 295 0 295 0 0 -100z m-1950 -250 l0 -90 -55 0 c-30 0 -55 5 -55 10 0 6
-19 10 -42 10 l-42 0 37 38 c39 40 48 80 23 101 -20 17 -67 10 -80 -11 -14
-23 1 -36 17 -14 17 24 51 17 55 -11 2 -16 -11 -36 -45 -69 -29 -28 -43 -49
-35 -51 6 -3 12 -9 12 -14 0 -5 -82 -9 -190 -9 l-190 0 0 100 0 100 295 0 295
0 0 -90z m650 0 l0 -90 -135 0 -135 0 16 25 c15 23 15 27 0 49 -10 15 -12 27
-6 31 27 17 -6 65 -44 65 -24 0 -54 -26 -43 -37 4 -3 13 0 22 7 8 7 22 10 30
6 19 -7 19 -35 0 -42 -21 -9 -19 -21 6 -27 15 -4 20 -12 17 -29 -4 -29 -37
-36 -55 -12 -17 23 -31 9 -15 -16 12 -19 9 -20 -118 -20 l-130 0 0 90 0 90
295 0 295 0 0 -90z m650 -11 l0 -102 -192 7 c-106 3 -239 9 -295 12 l-103 6 0
89 0 89 295 0 295 0 0 -101z m650 1 l0 -100 -295 0 -295 0 0 100 0 100 295 0
295 0 0 -100z m-2102 -167 c-15 -4 -18 -17 -18 -89 0 -77 2 -84 20 -84 11 0
20 -4 20 -10 0 -6 -83 -10 -230 -10 l-230 0 0 100 0 100 228 -1 c125 -1 219
-3 210 -6z m1452 -18 l0 -24 -37 21 c-21 12 -40 23 -42 25 -2 2 14 3 37 3 38
0 42 -2 42 -25z m650 -75 l0 -100 -242 0 -242 0 -53 52 c-49 49 -53 56 -53
100 l0 48 295 0 295 0 0 -100z m-2083 -27 c-2 -21 -4 -6 -4 32 0 39 2 55 4 38
2 -18 2 -50 0 -70z m681 -70 c-60 -2 -156 -2 -215 0 -60 1 -11 3 107 3 118 0
167 -2 108 -3z m225 0 c-13 -2 -33 -2 -45 0 -13 2 -3 4 22 4 25 0 35 -2 23 -4z
m-903 -163 l0 -100 -230 0 -230 0 0 100 0 100 230 0 230 0 0 -100z m780 0 l0
-100 -210 0 -210 0 0 100 0 100 210 0 210 0 0 -100z m402 86 c16 -11 14 -16
-18 -61 -18 -27 -34 -52 -34 -57 0 -4 18 -8 40 -8 33 0 40 -3 40 -20 0 -11 5
-20 10 -20 6 0 10 9 10 19 0 11 6 22 13 25 10 5 10 7 0 12 -7 3 -13 20 -13 37
l0 30 24 -22 c13 -12 35 -44 50 -72 l27 -49 -245 0 -246 0 0 100 0 100 163 0
c116 -1 167 -4 179 -14z m898 -86 l0 -100 -184 0 -183 0 -7 31 c-3 16 -21 61
-40 100 l-34 69 224 0 224 0 0 -100z m-870 10 c0 -26 -4 -30 -26 -30 l-25 0
21 30 c12 17 23 30 26 30 2 0 4 -13 4 -30z m-1232 -187 c-55 -35 -57 -124 -3
-153 14 -7 25 -17 25 -22 0 -4 -103 -8 -230 -8 l-230 0 0 100 0 100 233 0
c222 -1 231 -1 205 -17z m802 -83 l0 -100 -210 0 c-133 0 -210 4 -210 10 0 6
4 10 8 10 5 0 14 11 20 25 9 19 19 25 42 25 23 0 33 -6 42 -25 6 -14 17 -25
24 -25 11 0 9 12 -6 50 -41 105 -50 122 -62 118 -6 -2 -22 -33 -35 -69 -14
-35 -26 -66 -29 -68 -2 -2 -4 30 -4 72 l0 77 210 0 210 0 0 -100z m518 93
c-68 -5 -78 -23 -13 -23 l45 0 -50 -62 c-28 -34 -50 -68 -50 -75 0 -9 18 -13
65 -13 37 0 65 4 65 10 0 6 -22 10 -50 10 -27 0 -50 2 -50 5 0 3 21 32 47 65
55 68 58 66 69 -45 l7 -65 -272 0 -271 0 0 100 0 100 258 -2 c141 -1 231 -3
200 -5z m782 -93 l0 -100 -165 0 c-103 0 -165 4 -165 10 0 6 5 10 10 10 6 0
10 35 10 86 0 81 -1 86 -20 81 -11 -3 -20 -1 -20 4 0 5 77 9 175 9 l175 0 0
-100z m-2080 5 c0 -56 -6 -65 -28 -43 -24 24 -9 98 20 98 4 0 8 -25 8 -55z
m444 23 c9 -35 8 -38 -14 -38 -11 0 -20 3 -20 8 0 19 13 52 20 52 4 0 10 -10
14 -22z m-444 -288 l0 -100 -230 0 -230 0 0 100 0 100 230 0 230 0 0 -100z
m780 0 l0 -100 -210 0 -210 0 0 100 0 100 210 0 210 0 0 -100z m600 69 c0 -16
-5 -61 -11 -100 l-12 -69 -258 0 -259 0 0 100 0 100 270 0 270 0 0 -31z m700
-69 l0 -100 -175 0 c-143 0 -173 2 -169 14 3 8 19 13 42 12 30 -1 38 4 50 27
12 24 11 31 -3 54 -13 20 -23 24 -46 21 -32 -5 -39 11 -13 33 13 10 19 10 36
0 25 -15 35 -7 17 15 -8 10 -23 14 -41 12 -15 -3 -28 -1 -28 4 0 4 74 8 165 8
l165 0 0 -100z m-275 -25 c0 -23 -5 -30 -19 -30 -28 0 -43 29 -26 50 21 25 45
14 45 -20z m-1805 -235 l0 -100 -230 0 -230 0 0 100 0 100 230 0 230 0 0 -100z
m780 0 l0 -100 -210 0 -210 0 0 100 0 100 210 0 210 0 0 -100z m550 93 c0 -22
-64 -114 -104 -151 l-46 -42 -170 0 -170 0 0 100 0 100 245 0 c135 0 245 -3
245 -7z m750 -93 l0 -100 -220 0 c-121 0 -220 1 -220 3 0 1 15 31 33 66 43 87
57 89 57 12 0 -34 4 -61 10 -61 6 0 10 35 10 85 0 85 -5 96 -29 73 -10 -11
-11 -10 -6 5 6 15 25 17 186 17 l179 0 0 -100z m-2080 -192 c0 -18 -9 -44 -20
-58 -25 -32 -25 -50 0 -50 20 0 25 -15 14 -44 -5 -14 -35 -16 -230 -16 l-224
0 0 100 0 100 230 0 230 0 0 -32z m780 24 c0 -5 -94 -8 -210 -8 -116 0 -210 4
-210 8 0 4 94 8 210 8 116 0 210 -4 210 -8z m219 4 c-2 -2 -39 -7 -81 -11 -54
-5 -78 -3 -78 4 0 7 30 11 82 11 45 0 79 -2 77 -4z m1081 -96 l0 -100 -295 0
-295 0 0 43 c0 49 31 88 75 93 24 3 25 1 25 -57 0 -46 3 -59 15 -59 12 0 15
16 15 85 0 47 -3 85 -7 85 -3 0 -15 -8 -26 -17 -19 -17 -20 -17 -8 5 12 22 13
22 256 22 l245 0 0 -100z m-650 -80 c0 -16 -7 -20 -32 -20 l-33 0 30 20 c37
24 35 24 35 0z m-1533 -87 c-41 -6 -60 -43 -55 -104 5 -53 18 -69 55 -69 35 0
56 41 51 100 l-5 50 93 0 94 0 0 -85 0 -85 -295 0 -295 0 0 100 0 100 193 -1
c105 -1 180 -4 164 -6z m1533 -93 l0 -100 -295 0 -295 0 0 85 0 85 79 0 c44 0
86 3 94 6 11 4 13 -1 10 -19 -3 -14 0 -28 6 -31 7 -5 6 -15 -5 -32 -15 -22
-15 -26 0 -49 18 -27 63 -34 84 -13 15 15 16 64 2 73 -8 5 -8 11 0 20 6 7 8
24 5 38 -8 32 0 33 183 36 l132 1 0 -100z m650 0 l0 -100 -295 0 -295 0 0 100
0 100 295 0 295 0 0 -100z m-2156 28 c18 -72 -37 -124 -55 -53 -8 26 -4 67 8
88 11 20 39 -1 47 -35z m442 27 c-8 -21 14 -19 30 3 10 13 17 15 30 6 30 -18
27 -32 -20 -82 -25 -27 -46 -52 -46 -56 0 -3 25 -6 55 -6 30 0 55 5 55 10 0 6
-16 10 -36 10 l-36 0 36 40 c21 24 36 50 36 65 0 14 6 25 13 25 9 0 12 -9 9
-28 -5 -39 22 -66 60 -58 31 6 35 -1 14 -29 -13 -17 -17 -18 -40 -6 -14 8 -28
12 -31 9 -11 -10 26 -38 50 -38 37 0 58 39 53 100 l-3 50 93 0 92 0 0 -85 0
-85 -295 0 -295 0 0 85 0 85 91 0 c77 0 90 -2 85 -15z m208 -7 c13 -22 -14
-54 -38 -45 -16 6 -22 48 -9 61 11 11 35 3 47 -16z m516 -3 c0 -18 -5 -25 -19
-25 -11 0 -23 5 -26 10 -11 18 3 40 25 40 15 0 20 -7 20 -25z m5 -75 c0 -18
-6 -26 -23 -28 -13 -2 -25 3 -28 12 -10 26 4 48 28 44 17 -2 23 -10 23 -28z
m-965 -230 l0 -100 -295 0 -295 0 0 100 0 100 295 0 295 0 0 -100z m650 0 l0
-100 -295 0 -295 0 0 100 0 100 295 0 295 0 0 -100z m650 0 l0 -100 -295 0
-295 0 0 100 0 100 295 0 295 0 0 -100z m650 0 l0 -100 -295 0 -295 0 0 100 0
100 295 0 295 0 0 -100z"/>
<path d="M90 2475 c0 -50 4 -85 10 -85 6 0 10 18 10 40 l0 40 40 0 c22 0 40 5
40 10 0 6 -18 10 -40 10 -36 0 -40 3 -40 25 0 23 3 25 50 25 28 0 50 5 50 10
0 6 -27 10 -60 10 l-60 0 0 -85z"/>
<path d="M252 2537 c-31 -33 -30 -96 1 -125 53 -50 127 -12 127 64 0 75 -80
112 -128 61z m86 -13 c44 -31 18 -114 -37 -114 -49 0 -70 85 -29 114 12 9 27
16 33 16 6 0 21 -7 33 -16z"/>
<path d="M430 2540 c-27 -27 -35 -65 -20 -101 34 -82 150 -54 150 36 0 70 -83
112 -130 65z m90 -20 c11 -11 20 -31 20 -45 0 -30 -32 -65 -59 -65 -30 0 -51
28 -51 65 0 60 50 85 90 45z"/>
<path d="M730 2476 c0 -70 3 -86 15 -86 12 0 15 14 16 63 l0 62 20 -63 c11
-36 25 -62 31 -60 7 3 22 33 34 69 l22 64 1 -67 c1 -38 5 -68 11 -68 6 0 10
35 10 86 0 74 -2 85 -17 82 -10 -2 -24 -27 -38 -68 l-22 -65 -20 65 c-16 51
-25 66 -42 68 -20 3 -21 -1 -21 -82z"/>
<path d="M916 2538 c26 -84 54 -143 68 -146 9 -2 16 -1 16 2 0 2 13 41 30 85
23 65 27 81 15 81 -8 0 -15 -6 -16 -12 0 -7 -10 -40 -23 -73 l-23 -60 -24 73
c-14 43 -28 72 -37 72 -9 0 -11 -7 -6 -22z"/>
<path d="M1100 2540 c-28 -28 -34 -62 -16 -103 22 -55 101 -64 127 -16 16 30
3 36 -24 11 -42 -40 -87 -18 -87 43 0 56 44 83 81 49 28 -25 47 -12 21 14 -28
28 -75 29 -102 2z"/>
<path d="M1421 2534 c-44 -56 -12 -144 53 -144 32 0 66 25 66 48 0 17 -7 15
-30 -8 -11 -11 -27 -20 -35 -20 -23 0 -55 37 -55 65 0 27 32 65 54 65 8 0 21
-7 30 -15 16 -16 36 -20 36 -7 0 19 -38 42 -68 42 -21 0 -37 -8 -51 -26z"/>
<path d="M1570 2476 l0 -86 50 0 c42 0 52 4 66 25 14 22 15 27 2 48 -12 17
-13 26 -4 40 19 30 -4 52 -63 55 l-51 3 0 -85z m88 52 c17 -17 -4 -38 -39 -38
-24 0 -29 4 -29 25 0 21 5 25 28 25 15 0 33 -5 40 -12z m7 -88 c0 -22 -5 -25
-37 -28 -36 -3 -38 -2 -38 28 0 30 2 31 38 28 32 -3 37 -6 37 -28z"/>
<path d="M1725 2533 c10 -16 24 -37 32 -48 7 -11 13 -36 13 -57 0 -21 5 -38
10 -38 6 0 10 14 10 32 0 18 13 52 31 80 17 27 28 52 24 56 -4 4 -12 -1 -19
-12 -6 -10 -18 -28 -27 -39 -16 -21 -17 -20 -40 16 -13 20 -30 37 -38 37 -10
0 -9 -6 4 -27z"/>
<path d="M2089 2533 c-55 -143 -55 -143 -41 -143 5 0 14 11 20 25 9 19 19 25
42 25 23 0 33 -6 42 -25 6 -14 17 -25 24 -25 11 0 9 12 -6 50 -53 134 -61 144
-81 93z m35 -35 c9 -35 8 -38 -14 -38 -11 0 -20 3 -20 8 0 19 13 52 20 52 4 0
10 -10 14 -22z"/>
<path d="M2210 2491 c0 -81 13 -101 65 -101 48 0 65 29 65 107 0 49 -3 63 -15
63 -12 0 -15 -14 -15 -70 0 -66 -1 -70 -25 -76 -41 -10 -55 10 -55 82 0 36 -4
64 -10 64 -6 0 -10 -30 -10 -69z"/>
<path d="M2386 2544 c-32 -32 -9 -69 49 -80 44 -8 49 -40 8 -50 -20 -5 -30 -2
-44 14 -24 30 -44 29 -28 0 16 -31 28 -38 66 -38 67 0 80 81 15 96 -50 12 -65
24 -51 40 15 18 43 18 59 -1 16 -19 30 -19 30 0 0 33 -76 47 -104 19z"/>
<path d="M178 2275 c-33 -28 -36 -39 -8 -30 18 6 20 2 20 -54 0 -48 3 -61 15
-61 12 0 15 16 15 85 0 47 -3 85 -7 85 -5 0 -20 -12 -35 -25z"/>
<path d="M280 2281 c-5 -11 -10 -41 -10 -66 0 -25 5 -55 10 -66 13 -23 62 -26
80 -4 17 20 17 120 0 140 -18 22 -67 19 -80 -4z m64 -17 c22 -57 -6 -131 -39
-104 -18 15 -20 91 -3 108 17 17 35 15 42 -4z"/>
<path d="M1596 2245 c-20 -30 -36 -59 -36 -65 0 -5 16 -10 35 -10 28 0 35 -4
35 -20 0 -11 5 -20 10 -20 6 0 10 9 10 19 0 11 6 22 13 25 10 5 10 7 0 12 -8
3 -13 26 -13 60 0 30 -4 54 -9 54 -4 0 -25 -25 -45 -55z m34 -25 c0 -23 -4
-30 -20 -30 -24 0 -25 4 -4 35 21 32 24 31 24 -5z"/>
<path d="M2170 2285 c-17 -20 -5 -32 15 -15 18 15 45 6 45 -14 0 -9 -10 -21
-22 -28 l-23 -12 25 -6 c18 -4 25 -13 25 -30 0 -30 -33 -40 -51 -15 -19 26
-37 14 -19 -13 29 -41 95 -22 95 28 0 16 -5 32 -10 35 -7 4 -7 13 -1 24 23 42
-49 83 -79 46z"/>
<path d="M2293 2258 c-9 -44 -1 -60 20 -39 19 19 46 12 53 -14 10 -41 -38 -78
-52 -40 -6 16 -34 21 -34 7 0 -16 36 -42 57 -42 45 0 71 71 37 104 -8 9 -26
16 -39 16 -18 0 -23 4 -19 15 4 9 19 15 35 15 16 0 29 5 29 10 0 6 -18 10 -39
10 -39 0 -40 -1 -48 -42z"/>
<path d="M110 1956 c0 -51 4 -86 10 -86 6 0 10 28 11 63 l1 62 21 -62 c11 -35
26 -63 32 -63 6 0 21 28 32 63 l21 62 1 -62 c1 -49 4 -63 16 -63 12 0 15 16
15 85 0 77 -2 85 -19 85 -15 0 -25 -15 -42 -67 l-22 -68 -22 65 c-14 41 -28
66 -38 68 -15 3 -17 -8 -17 -82z"/>
<path d="M300 1955 l0 -85 65 0 c37 0 65 4 65 10 0 6 -25 10 -55 10 -54 0 -55
0 -55 30 0 29 1 30 50 30 28 0 50 5 50 10 0 6 -22 10 -50 10 -47 0 -50 2 -50
25 0 23 3 25 50 25 28 0 50 5 50 10 0 6 -27 10 -60 10 l-60 0 0 -85z"/>
<path d="M2070 1955 c0 -50 4 -85 10 -85 6 0 10 18 10 40 l0 40 40 0 c22 0 40
5 40 10 0 6 -18 10 -40 10 -36 0 -40 3 -40 25 0 23 4 25 45 25 25 0 45 5 45
10 0 6 -25 10 -55 10 l-55 0 0 -85z"/>
<path d="M2210 1955 c0 -50 4 -85 10 -85 6 0 10 18 10 41 0 36 2 40 22 37 13
-2 33 -19 47 -40 13 -21 30 -38 38 -38 18 0 16 9 -11 45 -23 30 -24 32 -5 43
21 14 25 52 7 70 -7 7 -36 12 -65 12 l-53 0 0 -85z m98 53 c18 -18 -5 -38 -44
-38 -30 0 -34 3 -34 25 0 22 4 25 33 25 18 0 38 -5 45 -12z"/>
<path d="M2409 2013 c-55 -143 -55 -143 -41 -143 5 0 14 11 20 25 9 19 19 25
42 25 23 0 33 -6 42 -25 6 -14 17 -25 24 -25 11 0 9 12 -6 50 -53 134 -61 144
-81 93z m35 -35 c9 -35 8 -38 -14 -38 -11 0 -20 3 -20 8 0 19 13 52 20 52 4 0
10 -10 14 -22z"/>
<path d="M215 1739 c-8 -48 -4 -55 23 -38 31 19 54 5 50 -33 -3 -38 -34 -51
-54 -23 -19 26 -37 14 -19 -13 32 -45 95 -18 95 42 0 38 -15 56 -47 56 -14 0
-23 6 -23 15 0 10 11 15 35 15 19 0 35 5 35 10 0 6 -20 10 -44 10 -44 0 -44 0
-51 -41z"/>
<path d="M372 1757 c-27 -29 -28 -40 -2 -32 18 6 20 2 20 -54 0 -34 4 -61 10
-61 6 0 10 35 10 85 0 47 -4 85 -8 85 -5 0 -18 -10 -30 -23z"/>
<path d="M930 1761 c-5 -11 -10 -41 -10 -66 0 -61 14 -85 49 -85 40 0 54 22
54 85 0 30 -6 61 -13 70 -18 22 -67 19 -80 -4z m64 -17 c22 -57 -6 -131 -39
-104 -18 15 -20 91 -3 108 17 17 35 15 42 -4z"/>
<path d="M1541 1754 c-26 -25 -22 -46 4 -24 13 11 15 4 15 -54 0 -37 4 -66 10
-66 6 0 10 35 10 85 0 47 -3 85 -7 84 -5 -1 -19 -12 -32 -25z"/>
<path d="M2191 1754 c-26 -25 -22 -46 4 -24 13 11 15 4 15 -54 0 -37 4 -66 10
-66 6 0 10 35 10 85 0 47 -3 85 -7 84 -5 -1 -19 -12 -32 -25z"/>
<path d="M2296 1764 c-30 -30 -16 -46 15 -18 10 9 25 14 34 11 28 -11 17 -52
-25 -91 -22 -20 -40 -41 -40 -46 0 -6 25 -10 55 -10 30 0 55 5 55 10 0 6 -18
10 -40 10 l-40 0 40 40 c22 22 40 49 40 59 0 27 -26 51 -55 51 -13 0 -31 -7
-39 -16z"/>
<path d="M70 1435 c0 -69 3 -85 15 -85 11 0 15 14 16 58 l1 57 18 -55 c9 -30
23 -55 30 -55 7 0 23 29 36 65 l22 65 1 -67 c1 -38 5 -68 11 -68 6 0 10 35 10
85 0 76 -2 85 -18 85 -14 0 -23 -15 -37 -60 -10 -33 -21 -60 -25 -60 -4 0 -14
27 -23 60 -14 48 -21 60 -37 60 -18 0 -20 -7 -20 -85z"/>
<path d="M282 1500 c-30 -28 -31 -101 -2 -130 36 -36 120 -17 120 28 0 18 -13
14 -33 -8 -21 -25 -49 -26 -70 -2 -49 54 17 147 67 96 9 -8 21 -14 28 -12 21
7 -30 48 -60 48 -16 0 -38 -9 -50 -20z"/>
<path d="M1010 1436 c0 -70 3 -86 15 -86 12 0 15 14 16 63 l0 62 20 -63 c11
-36 25 -62 31 -60 7 3 22 33 34 69 l22 64 1 -67 c1 -38 5 -68 11 -68 6 0 10
35 10 86 0 74 -2 85 -17 82 -10 -2 -24 -27 -38 -68 l-22 -65 -20 65 c-16 51
-25 66 -42 68 -20 3 -21 -1 -21 -82z"/>
<path d="M1210 1435 c0 -69 3 -85 15 -85 12 0 15 16 15 85 0 69 -3 85 -15 85
-12 0 -15 -16 -15 -85z"/>
<path d="M1456 1512 c-3 -5 -19 -43 -35 -86 -21 -54 -26 -76 -16 -76 7 0 16
11 19 25 5 21 12 25 41 25 29 0 37 -5 45 -25 5 -14 16 -25 24 -25 11 0 7 19
-19 82 -31 79 -47 100 -59 80z m28 -69 c6 -20 4 -23 -17 -23 -24 0 -25 1 -14
35 11 36 17 34 31 -12z"/>
<path d="M1560 1435 c0 -69 3 -85 15 -85 12 0 15 14 15 63 l0 62 40 -62 c22
-35 44 -63 50 -63 6 0 10 34 10 85 0 50 -4 85 -10 85 -6 0 -10 -29 -10 -67 l0
-68 -41 68 c-57 92 -69 89 -69 -18z"/>
<path d="M2290 1435 l0 -85 55 0 c30 0 55 5 55 10 0 6 -18 10 -40 10 l-40 0 0
75 c0 60 -3 75 -15 75 -12 0 -15 -16 -15 -85z"/>
<path d="M2420 1435 l0 -85 55 0 c30 0 55 5 55 10 0 6 -18 10 -40 10 l-40 0 0
75 c0 60 -3 75 -15 75 -12 0 -15 -16 -15 -85z"/>
<path d="M215 1238 c-19 -28 0 -39 20 -12 11 15 18 17 31 8 30 -18 27 -32 -20
-82 -25 -27 -46 -52 -46 -56 0 -3 25 -6 55 -6 30 0 55 5 55 10 0 6 -16 10 -36
10 l-36 0 36 40 c53 59 46 110 -15 110 -18 0 -34 -8 -44 -22z"/>
<path d="M343 1218 c-9 -44 -1 -60 20 -39 19 19 46 12 53 -14 10 -41 -38 -78
-52 -40 -6 16 -34 21 -34 7 0 -16 36 -42 57 -42 45 0 71 71 37 104 -8 9 -26
16 -39 16 -18 0 -23 4 -19 15 4 9 19 15 35 15 16 0 29 5 29 10 0 6 -18 10 -39
10 -39 0 -40 -1 -48 -42z"/>
<path d="M891 1234 c-26 -25 -22 -46 4 -24 13 11 15 4 15 -54 0 -37 4 -66 10
-66 6 0 10 35 10 85 0 47 -3 85 -7 84 -5 -1 -19 -12 -32 -25z"/>
<path d="M980 1250 c0 -5 17 -10 39 -10 l38 0 -23 -47 c-24 -46 -32 -103 -15
-103 5 0 12 15 15 34 4 19 18 55 31 81 14 25 25 48 25 51 0 2 -25 4 -55 4 -30
0 -55 -4 -55 -10z"/>
<path d="M1520 1245 c-17 -20 -5 -32 15 -15 18 15 45 6 45 -14 0 -9 -10 -21
-22 -28 l-23 -12 25 -6 c18 -4 25 -13 25 -30 0 -30 -33 -40 -51 -15 -19 26
-37 14 -19 -13 29 -41 95 -22 95 28 0 16 -5 32 -10 35 -7 4 -7 13 -1 24 23 42
-49 83 -79 46z"/>
<path d="M1644 1235 c-20 -30 -15 -122 7 -136 26 -16 58 -9 75 16 20 30 15
122 -7 136 -26 16 -58 9 -75 -16z m70 -37 c18 -72 -37 -124 -55 -53 -8 26 -4
67 8 88 11 20 39 -1 47 -35z"/>
<path d="M282 988 c-17 -17 -15 -73 3 -88 8 -7 26 -10 40 -8 29 6 34 -12 9
-33 -13 -10 -19 -10 -36 0 -24 15 -35 7 -18 -14 13 -16 47 -20 67 -7 35 22 39
114 7 147 -18 18 -55 20 -72 3z m63 -43 c0 -25 -4 -30 -25 -30 -16 0 -26 6
-28 18 -6 30 6 49 30 45 18 -2 23 -9 23 -33z"/>
<path d="M926 959 c-8 -49 -5 -55 22 -38 31 19 54 5 50 -33 -4 -38 -34 -51
-55 -22 -16 22 -31 9 -17 -14 7 -11 24 -17 45 -17 27 0 36 5 48 29 12 26 12
33 0 55 -9 16 -25 27 -42 29 -41 5 -35 32 8 32 19 0 35 5 35 10 0 6 -20 10
-44 10 -43 0 -43 0 -50 -41z"/>
<path d="M1582 988 c-17 -17 -15 -73 3 -88 8 -7 26 -10 40 -8 29 6 34 -12 9
-33 -13 -10 -19 -10 -36 0 -24 15 -35 7 -18 -14 13 -16 47 -20 67 -7 35 22 39
114 7 147 -18 18 -55 20 -72 3z m63 -43 c0 -25 -4 -30 -25 -30 -16 0 -26 6
-28 18 -6 30 6 49 30 45 18 -2 23 -9 23 -33z"/>
<path d="M2311 974 c-26 -25 -22 -46 4 -24 13 11 15 4 15 -54 0 -37 4 -66 10
-66 6 0 10 35 10 85 0 47 -3 85 -7 84 -5 -1 -19 -12 -32 -25z"/>
<path d="M118 717 c-33 -27 -36 -41 -8 -32 18 6 20 2 20 -54 0 -48 3 -61 15
-61 12 0 15 16 15 85 0 47 -3 85 -7 85 -5 -1 -20 -11 -35 -23z"/>
<path d="M213 714 c-15 -24 -15 -29 -2 -53 11 -20 23 -26 47 -26 35 0 41 -15
16 -36 -13 -10 -19 -10 -36 0 -24 15 -35 7 -18 -14 17 -20 53 -19 73 3 24 26
23 113 -1 135 -27 25 -59 21 -79 -9z m75 -20 c4 -25 -22 -49 -43 -40 -15 5
-21 47 -8 60 14 14 48 1 51 -20z"/>
<path d="M343 698 c-9 -44 -1 -60 20 -39 19 19 46 12 53 -14 10 -41 -38 -78
-52 -40 -6 16 -34 21 -34 7 0 -16 36 -42 57 -42 45 0 71 71 37 104 -8 9 -26
16 -39 16 -18 0 -23 4 -19 15 4 9 19 15 35 15 16 0 29 5 29 10 0 6 -18 10 -39
10 -39 0 -40 -1 -48 -42z"/>
<path d="M2163 714 c-15 -24 -15 -29 -2 -53 11 -20 23 -26 47 -26 35 0 41 -15
16 -36 -13 -10 -19 -10 -36 0 -24 15 -35 7 -18 -14 17 -20 53 -19 73 3 24 26
23 113 -1 135 -27 25 -59 21 -79 -9z m75 -20 c4 -25 -22 -49 -43 -40 -15 5
-21 47 -8 60 14 14 48 1 51 -20z"/>
<path d="M2297 722 c-37 -41 -7 -99 45 -88 31 6 35 -1 14 -29 -13 -17 -17 -18
-40 -6 -31 17 -43 10 -21 -13 23 -23 61 -20 79 6 23 32 21 110 -2 131 -24 22
-55 21 -75 -1z m67 -24 c13 -22 -14 -54 -38 -45 -16 6 -22 48 -9 61 11 11 35
3 47 -16z"/>
<path d="M2426 724 c-20 -20 -21 -68 -1 -84 8 -7 26 -10 40 -7 22 4 26 1 23
-17 -3 -22 -48 -37 -48 -17 0 6 -7 11 -16 11 -9 0 -14 -5 -12 -12 7 -20 34
-31 62 -24 67 17 59 166 -9 166 -13 0 -31 -7 -39 -16z m59 -39 c0 -23 -5 -30
-19 -30 -28 0 -43 29 -26 50 21 25 45 14 45 -20z"/>
<path d="M222 468 c-15 -15 -16 -45 -2 -53 6 -4 4 -16 -6 -31 -15 -22 -15 -26
0 -49 18 -27 63 -34 84 -13 15 15 16 60 1 75 -8 8 -8 13 0 17 28 18 -4 66 -43
66 -12 0 -27 -5 -34 -12z m58 -33 c0 -18 -5 -25 -19 -25 -11 0 -23 5 -26 10
-11 18 3 40 25 40 15 0 20 -7 20 -25z m5 -75 c0 -18 -6 -26 -23 -28 -13 -2
-25 3 -28 12 -10 26 4 48 28 44 17 -2 23 -10 23 -28z"/>
<path d="M1646 464 c-30 -30 -16 -46 15 -18 10 9 25 14 34 11 28 -11 17 -52
-25 -91 -22 -20 -40 -41 -40 -46 0 -6 25 -10 55 -10 30 0 55 5 55 10 0 6 -18
10 -40 10 l-40 0 40 40 c22 22 40 49 40 59 0 27 -26 51 -55 51 -13 0 -31 -7
-39 -16z"/>
<path d="M2150 470 c0 -5 18 -10 40 -10 l39 0 -24 -52 c-25 -53 -32 -98 -17
-98 5 0 14 19 21 43 7 23 21 57 32 75 10 18 19 37 19 43 0 5 -25 9 -55 9 -30
0 -55 -4 -55 -10z"/>
<path d="M2296 464 c-30 -30 -16 -46 15 -18 10 9 25 14 34 11 28 -11 17 -52
-25 -91 -22 -20 -40 -41 -40 -46 0 -6 25 -10 55 -10 30 0 55 5 55 10 0 6 -18
10 -40 10 l-40 0 40 40 c22 22 40 49 40 59 0 27 -26 51 -55 51 -13 0 -31 -7
-39 -16z"/>
<path d="M156 198 c-11 -15 -12 -26 -5 -40 7 -14 7 -23 -1 -33 -19 -23 -8 -59
23 -69 45 -16 93 26 70 62 -6 10 -9 30 -6 45 10 53 -50 79 -81 35z m62 -21 c4
-20 -25 -34 -40 -19 -15 15 -1 44 19 40 10 -2 19 -11 21 -21z m-3 -77 c0 -26
-20 -36 -44 -21 -21 14 -4 53 22 49 16 -2 22 -10 22 -28z"/>
<path d="M282 208 c-17 -17 -15 -73 3 -88 8 -7 26 -10 40 -8 29 6 34 -12 9
-33 -13 -10 -19 -10 -36 0 -24 15 -35 7 -18 -14 13 -16 47 -20 67 -7 35 22 39
114 7 147 -18 18 -55 20 -72 3z m63 -43 c0 -25 -4 -30 -25 -30 -16 0 -26 6
-28 18 -6 30 6 49 30 45 18 -2 23 -9 23 -33z"/>
<path d="M390 210 c0 -5 18 -10 41 -10 22 0 39 -3 37 -7 -19 -37 -37 -84 -43
-110 -5 -26 -3 -33 9 -33 10 0 16 9 16 25 0 26 36 111 51 121 24 14 3 24 -51
24 -33 0 -60 -4 -60 -10z"/>
<path d="M806 198 c-11 -15 -12 -26 -5 -40 7 -14 7 -23 -1 -33 -19 -23 -8 -59
23 -69 45 -16 93 26 70 62 -6 10 -9 30 -6 45 10 53 -50 79 -81 35z m62 -21 c4
-20 -25 -34 -40 -19 -15 15 -1 44 19 40 10 -2 19 -11 21 -21z m-3 -77 c0 -26
-20 -36 -44 -21 -21 14 -4 53 22 49 16 -2 22 -10 22 -28z"/>
<path d="M946 165 c-20 -30 -36 -59 -36 -65 0 -5 16 -10 35 -10 28 0 35 -4 35
-20 0 -11 5 -20 10 -20 6 0 10 9 10 19 0 11 6 22 13 25 10 5 10 7 0 12 -8 3
-13 26 -13 60 0 30 -4 54 -9 54 -4 0 -25 -25 -45 -55z m34 -25 c0 -23 -4 -30
-20 -30 -24 0 -25 4 -4 35 21 32 24 31 24 -5z"/>
<path d="M1060 205 c-17 -20 -5 -32 15 -15 8 7 22 10 30 6 19 -7 19 -35 0 -42
-21 -9 -19 -21 6 -27 15 -4 20 -12 17 -29 -4 -29 -37 -36 -55 -12 -16 22 -31
9 -17 -14 6 -9 25 -18 42 -20 24 -2 34 3 48 22 15 24 15 28 0 50 -10 15 -12
27 -6 31 27 17 -6 65 -44 65 -13 0 -29 -7 -36 -15z"/>
<path d="M1456 204 c-20 -20 -21 -68 -1 -84 8 -7 26 -10 40 -7 22 4 26 1 23
-17 -3 -22 -48 -37 -48 -17 0 6 -7 11 -16 11 -9 0 -14 -5 -12 -12 7 -20 34
-31 62 -24 67 17 59 166 -9 166 -13 0 -31 -7 -39 -16z m59 -39 c0 -23 -5 -30
-19 -30 -28 0 -43 29 -26 50 21 25 45 14 45 -20z"/>
<path d="M1560 210 c0 -5 18 -10 41 -10 22 0 39 -3 37 -7 -19 -37 -37 -84 -43
-110 -5 -26 -3 -33 9 -33 10 0 16 9 16 25 0 26 36 111 51 121 24 14 3 24 -51
24 -33 0 -60 -4 -60 -10z"/>
<path d="M1718 203 c-37 -43 -26 -138 17 -149 34 -9 54 1 65 32 15 40 -12 78
-51 72 -32 -5 -39 11 -13 33 13 10 19 10 36 0 24 -15 35 -7 18 14 -17 20 -53
19 -72 -2z m57 -98 c0 -23 -5 -30 -19 -30 -28 0 -43 29 -26 50 21 25 45 14 45
-20z"/>
<path d="M2106 208 c-3 -7 -7 -28 -10 -45 -6 -34 9 -44 31 -22 21 21 45 2 41
-33 -3 -37 -35 -52 -50 -24 -10 17 -28 22 -28 7 0 -18 31 -41 55 -41 27 0 55
34 55 66 0 27 -30 54 -59 54 -35 0 -19 25 17 28 18 2 32 7 32 13 0 14 -80 11
-84 -3z"/>
<path d="M2230 201 c-5 -11 -10 -41 -10 -66 0 -61 14 -85 49 -85 40 0 54 22
54 85 0 30 -6 61 -13 70 -18 22 -67 19 -80 -4z m64 -17 c22 -57 -6 -131 -39
-104 -18 15 -20 91 -3 108 17 17 35 15 42 -4z"/>
<path d="M2360 201 c-5 -11 -10 -41 -10 -66 0 -61 14 -85 49 -85 40 0 54 22
54 85 0 30 -6 61 -13 70 -18 22 -67 19 -80 -4z m64 -17 c22 -57 -6 -131 -39
-104 -18 15 -20 91 -3 108 17 17 35 15 42 -4z"/>
</g>
</svg>
